<svg width="640" height="641" viewBox="0 0 640 641" fill="none" xmlns="http://www.w3.org/2000/svg">
<path d="M485 2.33334C474.2 4.60001 463 9.80001 453.133 16.8667C448.733 20.2 361.8 106.067 260.067 207.933L75.2667 393L37.8 506.467C17.1333 568.867 0.333324 621.667 0.333324 623.8C0.333324 631.533 9.26666 640.333 17.2667 640.333C18.6 640.333 71 623.267 133.667 602.333L247.667 564.333L435.8 375.933C640.867 170.867 629.533 182.867 636.467 160.333C639 152.467 639.533 147.133 639.533 135.667C639.533 124.2 639 118.867 636.467 111C630.467 91.2667 626.867 86.6 589.8 49.5333C557 16.6 555.267 15.1333 544.2 9.80001C537.8 6.73334 528.6 3.40001 523.533 2.33334C512.333 -0.0666594 495.8 -0.0666594 485 2.33334ZM523.4 39C533.8 42.8667 539.4 47.8 569.8 78.4667C598.2 107.4 602.2 113 604.067 127.667C606.6 147.8 601 161.8 583 179.667L571 191.667L509.533 130.333L448.2 69L460.2 57.4C466.867 51 474.867 44.3333 477.933 42.4667C491.267 34.6 508.2 33.4 523.4 39ZM484.733 156.067L545.667 217L392.333 370.333L239 523.667L177.667 462.333L116.333 401L269.267 248.067C353.533 163.8 422.6 95 423 95C423.4 95 451.133 122.467 484.733 156.067ZM152.867 488.2L206.067 541.4L127.4 567.533C84.0667 581.933 48.0667 593.667 47.2667 593.667C46.4667 593.667 57.5333 558.733 71.8 515.933C99.9333 431.667 98.7333 435 99.2667 435C99.5333 435 123.667 458.867 152.867 488.2Z" fill="white"/>
</svg>
